<mxfile host="app.diagrams.net" modified="2022-03-14T15:18:36.965Z" agent="5.0 (Windows NT 10.0; WOW64) AppleWebKit/537.36 (KHTML, like Gecko) Chrome/70.0.3538.25 Safari/537.36 Core/1.70.3883.400 QQBrowser/10.8.4559.400" etag="tzOr_INTVirtW29T6jn0" version="16.4.3" type="github">
  <diagram id="Dw9PjmEnBSVlW7WKruL_" name="Page-1">
    <mxGraphModel dx="1422" dy="809" grid="1" gridSize="10" guides="1" tooltips="1" connect="1" arrows="1" fold="1" page="1" pageScale="1" pageWidth="827" pageHeight="1169" math="0" shadow="0">
      <root>
        <mxCell id="0" />
        <mxCell id="1" parent="0" />
        <mxCell id="Zcxb-QbjdMKUQoeVYBM3-1" value="" style="rounded=1;whiteSpace=wrap;html=1;fontSize=16;strokeColor=#FF0000;fillColor=none;" vertex="1" parent="1">
          <mxGeometry x="97.22" y="195" width="440" height="250" as="geometry" />
        </mxCell>
        <mxCell id="Zcxb-QbjdMKUQoeVYBM3-3" value="Beckham" style="ellipse;whiteSpace=wrap;html=1;aspect=fixed;fontSize=15;" vertex="1" parent="1">
          <mxGeometry x="107.22266254078036" y="230" width="80" height="80" as="geometry" />
        </mxCell>
        <mxCell id="Zcxb-QbjdMKUQoeVYBM3-4" value="play for&lt;br&gt;（2009.01，&lt;br&gt;2009.07）" style="whiteSpace=wrap;html=1;aspect=fixed;fontSize=15;" vertex="1" parent="1">
          <mxGeometry x="256.22266254078033" y="100" width="90" height="90" as="geometry" />
        </mxCell>
        <mxCell id="Zcxb-QbjdMKUQoeVYBM3-5" value="entity" style="text;html=1;strokeColor=none;fillColor=none;align=center;verticalAlign=middle;whiteSpace=wrap;rounded=0;fontSize=16;" vertex="1" parent="1">
          <mxGeometry x="117.22266254078036" y="200" width="60" height="30" as="geometry" />
        </mxCell>
        <mxCell id="Zcxb-QbjdMKUQoeVYBM3-6" value="statement" style="text;html=1;strokeColor=none;fillColor=none;align=center;verticalAlign=middle;whiteSpace=wrap;rounded=0;fontSize=16;" vertex="1" parent="1">
          <mxGeometry x="272.22266254078033" y="70" width="60" height="30" as="geometry" />
        </mxCell>
        <mxCell id="Zcxb-QbjdMKUQoeVYBM3-7" style="edgeStyle=orthogonalEdgeStyle;rounded=0;orthogonalLoop=1;jettySize=auto;html=1;exitX=1;exitY=0.5;exitDx=0;exitDy=0;fontSize=16;strokeWidth=1;" edge="1" parent="1">
          <mxGeometry relative="1" as="geometry">
            <mxPoint x="437.22266254078033" y="270" as="targetPoint" />
            <mxPoint x="347.2226625407802" y="270" as="sourcePoint" />
          </mxGeometry>
        </mxCell>
        <mxCell id="Zcxb-QbjdMKUQoeVYBM3-10" value="spouse&lt;br&gt;（1999.07，&lt;br&gt;-）" style="whiteSpace=wrap;html=1;aspect=fixed;fontSize=15;" vertex="1" parent="1">
          <mxGeometry x="257.22266254078033" y="230" width="90" height="90" as="geometry" />
        </mxCell>
        <mxCell id="Zcxb-QbjdMKUQoeVYBM3-11" value="statement" style="text;html=1;strokeColor=none;fillColor=none;align=center;verticalAlign=middle;whiteSpace=wrap;rounded=0;fontSize=16;" vertex="1" parent="1">
          <mxGeometry x="271.22266254078033" y="195" width="60" height="30" as="geometry" />
        </mxCell>
        <mxCell id="Zcxb-QbjdMKUQoeVYBM3-12" value="statement" style="text;html=1;strokeColor=none;fillColor=none;align=center;verticalAlign=middle;whiteSpace=wrap;rounded=0;fontSize=16;" vertex="1" parent="1">
          <mxGeometry x="272.22266254078033" y="320" width="60" height="30" as="geometry" />
        </mxCell>
        <mxCell id="Zcxb-QbjdMKUQoeVYBM3-13" value="" style="endArrow=classic;html=1;rounded=0;fontSize=16;strokeWidth=1;entryX=0;entryY=0.5;entryDx=0;entryDy=0;" edge="1" parent="1" target="Zcxb-QbjdMKUQoeVYBM3-4">
          <mxGeometry width="50" height="50" relative="1" as="geometry">
            <mxPoint x="187.22266254078036" y="270" as="sourcePoint" />
            <mxPoint x="237.22266254078036" y="220" as="targetPoint" />
          </mxGeometry>
        </mxCell>
        <mxCell id="Zcxb-QbjdMKUQoeVYBM3-14" value="" style="endArrow=classic;html=1;rounded=0;fontSize=16;strokeWidth=1;entryX=0;entryY=0.5;entryDx=0;entryDy=0;" edge="1" parent="1">
          <mxGeometry width="50" height="50" relative="1" as="geometry">
            <mxPoint x="187.22266254078036" y="270" as="sourcePoint" />
            <mxPoint x="257.2226625407802" y="270" as="targetPoint" />
          </mxGeometry>
        </mxCell>
        <mxCell id="Zcxb-QbjdMKUQoeVYBM3-16" value="" style="endArrow=classic;html=1;rounded=0;fontSize=16;strokeWidth=1;entryX=0;entryY=0.5;entryDx=0;entryDy=0;" edge="1" parent="1" target="Zcxb-QbjdMKUQoeVYBM3-17">
          <mxGeometry width="50" height="50" relative="1" as="geometry">
            <mxPoint x="346.22266254078033" y="140" as="sourcePoint" />
            <mxPoint x="436.22266254078033" y="270" as="targetPoint" />
          </mxGeometry>
        </mxCell>
        <mxCell id="Zcxb-QbjdMKUQoeVYBM3-17" value="A.C. Milan" style="ellipse;whiteSpace=wrap;html=1;aspect=fixed;fontSize=15;" vertex="1" parent="1">
          <mxGeometry x="437.22266254078033" y="100" width="80" height="80" as="geometry" />
        </mxCell>
        <mxCell id="Zcxb-QbjdMKUQoeVYBM3-18" value="entity" style="text;html=1;strokeColor=none;fillColor=none;align=center;verticalAlign=middle;whiteSpace=wrap;rounded=0;fontSize=16;" vertex="1" parent="1">
          <mxGeometry x="447.22266254078033" y="200" width="60" height="30" as="geometry" />
        </mxCell>
        <mxCell id="Zcxb-QbjdMKUQoeVYBM3-19" value="&lt;span style=&quot;color: rgb(51 , 51 , 51) ; font-family: &amp;#34;open sans&amp;#34; , &amp;#34;clear sans&amp;#34; , &amp;#34;helvetica neue&amp;#34; , &amp;#34;helvetica&amp;#34; , &amp;#34;arial&amp;#34; , sans-serif ; font-size: 16px ; background-color: rgb(255 , 255 , 255)&quot;&gt;Victoria Beckham&lt;/span&gt;" style="ellipse;whiteSpace=wrap;html=1;aspect=fixed;fontSize=15;" vertex="1" parent="1">
          <mxGeometry x="437.22266254078033" y="230" width="80" height="80" as="geometry" />
        </mxCell>
        <mxCell id="Zcxb-QbjdMKUQoeVYBM3-20" value="entity" style="text;html=1;strokeColor=none;fillColor=none;align=center;verticalAlign=middle;whiteSpace=wrap;rounded=0;fontSize=16;" vertex="1" parent="1">
          <mxGeometry x="447.22266254078033" y="70" width="60" height="30" as="geometry" />
        </mxCell>
        <mxCell id="Zcxb-QbjdMKUQoeVYBM3-34" value="subset" style="text;html=1;strokeColor=none;fillColor=none;align=center;verticalAlign=middle;whiteSpace=wrap;rounded=0;fontSize=16;" vertex="1" parent="1">
          <mxGeometry x="286.2226625407804" y="445" width="60" height="30" as="geometry" />
        </mxCell>
        <mxCell id="Zcxb-QbjdMKUQoeVYBM3-40" style="edgeStyle=orthogonalEdgeStyle;rounded=0;orthogonalLoop=1;jettySize=auto;html=1;exitX=1;exitY=0.5;exitDx=0;exitDy=0;fontSize=16;strokeWidth=1;" edge="1" parent="1" source="Zcxb-QbjdMKUQoeVYBM3-38">
          <mxGeometry relative="1" as="geometry">
            <mxPoint x="440" y="390" as="targetPoint" />
          </mxGeometry>
        </mxCell>
        <mxCell id="Zcxb-QbjdMKUQoeVYBM3-38" value="birthplace&lt;br&gt;（1975.05，&lt;br&gt;1975.05）" style="whiteSpace=wrap;html=1;aspect=fixed;fontSize=15;" vertex="1" parent="1">
          <mxGeometry x="257.22266254078033" y="345" width="90" height="90" as="geometry" />
        </mxCell>
        <mxCell id="Zcxb-QbjdMKUQoeVYBM3-39" value="" style="endArrow=classic;html=1;rounded=0;fontSize=16;strokeWidth=1;exitX=1;exitY=0.5;exitDx=0;exitDy=0;entryX=0;entryY=0.5;entryDx=0;entryDy=0;" edge="1" parent="1" source="Zcxb-QbjdMKUQoeVYBM3-3" target="Zcxb-QbjdMKUQoeVYBM3-38">
          <mxGeometry width="50" height="50" relative="1" as="geometry">
            <mxPoint x="390" y="440" as="sourcePoint" />
            <mxPoint x="440" y="390" as="targetPoint" />
          </mxGeometry>
        </mxCell>
        <mxCell id="Zcxb-QbjdMKUQoeVYBM3-41" value="&lt;font color=&quot;#333333&quot; face=&quot;open sans, clear sans, helvetica neue, helvetica, arial, sans-serif&quot;&gt;&lt;span style=&quot;font-size: 16px&quot;&gt;Leytonstone&lt;/span&gt;&lt;/font&gt;" style="ellipse;whiteSpace=wrap;html=1;aspect=fixed;fontSize=15;" vertex="1" parent="1">
          <mxGeometry x="437.22" y="345" width="90" height="90" as="geometry" />
        </mxCell>
        <mxCell id="Zcxb-QbjdMKUQoeVYBM3-42" value="entity" style="text;html=1;strokeColor=none;fillColor=none;align=center;verticalAlign=middle;whiteSpace=wrap;rounded=0;fontSize=16;" vertex="1" parent="1">
          <mxGeometry x="452.22266254078033" y="315" width="60" height="30" as="geometry" />
        </mxCell>
      </root>
    </mxGraphModel>
  </diagram>
</mxfile>
